<svg version="1.2" baseProfile="tiny-ps" xmlns="http://www.w3.org/2000/svg" viewBox="0 0 14 15" width="14" height="15">
	<title>about</title>
	<style>
		tspan { white-space:pre }
		.shp0 { fill: #5a5a5a } 
	</style>
	<g id="about">
		<g id="right side">
			<g id="1">
				<path id="" class="shp0" d="M9.33 7.5C9.33 6.21 8.29 5.17 7 5.17C5.71 5.17 4.67 6.21 4.67 7.5C4.67 8.78 5.71 9.83 7 9.83C8.29 9.83 9.33 8.78 9.33 7.5ZM7 2.54C9.73 2.54 11.96 4.77 11.96 7.5C11.96 10.23 9.73 12.46 7 12.46C4.27 12.46 2.04 10.23 2.04 7.5C2.04 4.77 4.27 2.54 7 2.54ZM14 7.5C14 3.63 10.86 0.5 7 0.5L7 0.5C3.14 0.5 0 3.63 0 7.5C0 11.36 3.14 14.5 7 14.5C10.86 14.5 14 11.36 14 7.5Z" />
			</g>
		</g>
	</g>
</svg>