<svg version="1.2" baseProfile="tiny-ps" xmlns="http://www.w3.org/2000/svg" viewBox="0 0 57 47" width="57" height="47">
	<title>services</title>
	<style>
		tspan { white-space:pre }
		.shp0 { fill: #000000 } 
	</style>
	<g id="services">
		<g id="photography">
			<path id="Forma 1" class="shp0" d="M16.97 26.95C16.97 33.27 22.1 38.4 28.43 38.4C34.75 38.4 39.88 33.27 39.88 26.95C39.88 20.62 34.75 15.48 28.43 15.48C22.1 15.48 16.97 20.62 16.97 26.95ZM53.11 7.55L40.77 7.55C39.88 4.03 39 0.5 35.48 0.5L21.37 0.5C17.85 0.5 16.97 4.03 16.08 7.55L3.74 7.55C1.8 7.55 0.22 9.14 0.22 11.08L0.22 42.81C0.22 44.75 1.8 46.34 3.74 46.34L53.11 46.34C55.05 46.34 56.63 44.75 56.63 42.81L56.63 11.08C56.63 9.14 55.05 7.55 53.11 7.55ZM28.43 42.59C19.78 42.59 12.78 35.59 12.78 26.95C12.78 18.3 19.78 11.3 28.43 11.3C37.07 11.3 44.07 18.3 44.07 26.95C44.07 35.59 37.07 42.59 28.43 42.59ZM53.11 18.13L46.06 18.13L46.06 14.6L53.11 14.6L53.11 18.13Z" />
		</g>
	</g>
</svg>