<svg version="1.2" baseProfile="tiny-ps" xmlns="http://www.w3.org/2000/svg" viewBox="0 0 55 55" width="55" height="55">
	<title>services</title>
	<style>
		tspan { white-space:pre }
		.shp0 { fill: #222222 } 
	</style>
	<g id="services">
		<g id="web design">
			<path id="Forma 1" class="shp0" d="M39.31 51.12L35.94 51.12C34.08 51.12 32.56 49.61 32.56 47.75L32.56 42.69L22.44 42.69L22.44 47.75C22.44 49.61 20.93 51.12 19.06 51.12L15.69 51.12C14.75 51.12 14 51.88 14 52.81C14 53.74 14.75 54.5 15.69 54.5L39.31 54.5C40.25 54.5 41 53.74 41 52.81C41 51.88 40.25 51.12 39.31 51.12ZM51.55 0.5L3.45 0.5C1.82 0.5 0.5 1.92 0.5 3.66L0.5 36.15C0.5 37.89 1.82 39.31 3.45 39.31L51.55 39.31C53.18 39.31 54.5 37.89 54.5 36.15L54.5 3.66C54.5 1.92 53.18 0.5 51.55 0.5ZM51.12 35.94L3.87 35.94L3.87 3.87L51.12 3.87L51.12 35.94Z" />
		</g>
	</g>
</svg>