<svg version="1.2" baseProfile="tiny-ps" xmlns="http://www.w3.org/2000/svg" viewBox="0 0 34 55" width="34" height="55">
	<title>services</title>
	<style>
		tspan { white-space:pre }
		.shp0 { fill: #000000 } 
	</style>
	<g id="services">
		<g id="mobile apps">
			<path id="Forma 1" class="shp0" d="M20.87 3.96C20.87 3.37 20.39 2.89 19.79 2.89L13.9 2.89C13.3 2.89 12.82 3.37 12.82 3.96L12.82 3.99C12.82 4.58 13.3 5.06 13.9 5.06L19.79 5.06C20.39 5.06 20.87 4.58 20.87 3.99L20.87 3.96ZM29.29 0L4.4 0C1.97 0 0 1.94 0 4.34L0 49.91C0 52.3 1.97 54.25 4.4 54.25L29.29 54.25C31.72 54.25 33.69 52.3 33.69 49.91L33.69 4.34C33.69 1.94 31.72 0 29.29 0ZM16.84 52.62C15.53 52.62 14.46 51.57 14.46 50.27C14.46 48.98 15.53 47.92 16.84 47.92C18.15 47.92 19.22 48.98 19.22 50.27C19.22 51.57 18.15 52.62 16.84 52.62ZM30.02 45.57C30.02 45.97 29.7 46.29 29.29 46.29L4.4 46.29C3.99 46.29 3.66 45.97 3.66 45.57L3.66 8.68C3.66 8.28 3.99 7.95 4.4 7.95L29.29 7.95C29.7 7.95 30.02 8.28 30.02 8.68L30.02 45.57ZM14.46 37.61C13.96 37.61 13.55 38.02 13.55 38.52C13.55 38.7 13.6 38.86 13.7 39.01L12.19 40.92C12.1 40.89 12 40.87 11.9 40.87C11.7 40.87 11.51 40.94 11.35 41.05L9.49 39.82C9.51 39.75 9.52 39.68 9.52 39.6C9.52 39.1 9.11 38.7 8.61 38.7C8.1 38.7 7.69 39.1 7.69 39.6C7.69 39.76 7.74 39.91 7.81 40.04L6.39 41.66C6.28 41.62 6.17 41.59 6.04 41.59C5.54 41.59 5.13 42 5.13 42.49C5.13 42.99 5.54 43.4 6.04 43.4C6.55 43.4 6.96 42.99 6.96 42.49C6.96 42.33 6.91 42.18 6.84 42.05L8.27 40.44C8.37 40.48 8.49 40.51 8.61 40.51C8.81 40.51 9 40.43 9.16 40.32L11.02 41.55C11 41.62 10.99 41.69 10.99 41.77C10.99 42.27 11.4 42.68 11.9 42.68C12.41 42.68 12.82 42.27 12.82 41.77C12.82 41.59 12.76 41.42 12.67 41.28L14.18 39.37C14.27 39.4 14.36 39.42 14.46 39.42C14.97 39.42 15.38 39.01 15.38 38.52C15.38 38.02 14.97 37.61 14.46 37.61ZM10.25 22.78L10.25 19.53C8.23 19.53 6.59 21.15 6.59 23.14L9.89 23.14C10.09 23.14 10.25 22.98 10.25 22.78ZM13.87 23.75C14.19 21.74 12.85 19.97 10.99 19.6L10.99 23.14C10.99 23.54 10.66 23.87 10.25 23.87L6.67 23.87C7.05 25.71 8.83 27.04 10.86 26.71C12.38 26.47 13.62 25.25 13.87 23.75ZM8.79 13.02L10.99 13.02L10.99 17.36L8.79 17.36L8.79 13.02ZM5.86 15.19L8.06 15.19L8.06 17.36L5.86 17.36L5.86 15.19ZM11.72 10.12L13.92 10.12L13.92 17.36L11.72 17.36L11.72 10.12ZM17.57 15.91L27.1 15.91C27.5 15.91 27.82 15.59 27.82 15.19L27.82 15.18C27.82 14.79 27.5 14.46 27.1 14.46L17.57 14.46C17.17 14.46 16.84 14.79 16.84 15.18L16.84 15.19C16.84 15.59 17.17 15.91 17.57 15.91ZM10.48 36.2L10.48 35.43C11.51 35.3 12.11 34.57 12.11 33.72C12.11 31.84 9.26 32.02 9.26 31.02C9.26 30.6 9.66 30.31 10.17 30.31C10.92 30.31 11.5 30.83 11.5 30.83L11.97 29.95C11.97 29.95 11.46 29.42 10.48 29.34L10.48 28.57L9.75 28.57L9.75 29.36C8.81 29.51 8.16 30.18 8.16 31.04C8.16 32.84 11.02 32.74 11.02 33.74C11.02 34.23 10.61 34.46 10.15 34.46C9.3 34.46 8.65 33.83 8.65 33.83L8.06 34.64C8.06 34.64 8.66 35.31 9.75 35.43L9.75 36.2L10.48 36.2ZM27.1 28.93L17.58 28.93C17.18 28.93 16.85 29.25 16.85 29.65L16.85 29.66C16.85 30.06 17.18 30.38 17.58 30.38L27.1 30.38C27.5 30.38 27.83 30.06 27.83 29.66L27.83 29.65C27.83 29.25 27.5 28.93 27.1 28.93ZM27.1 23.87L17.58 23.87C17.18 23.87 16.85 24.19 16.85 24.58L16.85 24.6C16.85 24.99 17.18 25.31 17.58 25.31L27.1 25.31C27.5 25.31 27.83 24.99 27.83 24.6L27.83 24.58C27.83 24.19 27.5 23.87 27.1 23.87ZM17.57 12.29L27.1 12.29C27.5 12.29 27.82 11.97 27.82 11.58L27.82 11.56C27.82 11.17 27.5 10.85 27.1 10.85L17.57 10.85C17.17 10.85 16.84 11.17 16.84 11.56L16.84 11.58C16.84 11.97 17.17 12.29 17.57 12.29ZM27.1 41.23L17.58 41.23C17.18 41.23 16.85 41.55 16.85 41.95L16.85 41.96C16.85 42.35 17.18 42.68 17.58 42.68L27.1 42.68C27.5 42.68 27.83 42.36 27.83 41.96L27.83 41.95C27.83 41.55 27.5 41.23 27.1 41.23ZM27.1 37.61L17.58 37.61C17.18 37.61 16.85 37.93 16.85 38.33L16.85 38.34C16.85 38.74 17.18 39.06 17.58 39.06L27.1 39.06C27.5 39.06 27.83 38.74 27.83 38.34L27.83 38.33C27.83 37.93 27.5 37.61 27.1 37.61ZM27.1 32.55L17.58 32.55C17.18 32.55 16.85 32.87 16.85 33.26L16.85 33.28C16.85 33.67 17.18 33.99 17.58 33.99L27.1 33.99C27.5 33.99 27.83 33.67 27.83 33.28L27.83 33.26C27.83 32.87 27.5 32.55 27.1 32.55ZM27.1 20.25L17.58 20.25C17.18 20.25 16.85 20.57 16.85 20.97L16.85 20.98C16.85 21.38 17.18 21.7 17.58 21.7L27.1 21.7C27.5 21.7 27.83 21.38 27.83 20.98L27.83 20.97C27.83 20.57 27.5 20.25 27.1 20.25Z" />
		</g>
	</g>
</svg>