<svg version="1.2" baseProfile="tiny-ps" xmlns="http://www.w3.org/2000/svg" viewBox="0 0 48 55" width="48" height="55">
	<title>services</title>
	<style>
		tspan { white-space:pre }
		.shp0 { fill: #000000 } 
	</style>
	<g id="services">
		<g id="marketing">
			<path id="Forma 1" class="shp0" d="M47.77 36.02L43.72 24.02C44.97 22.27 45.32 20.02 44.62 17.97C43.93 15.91 42.29 14.33 40.22 13.69L36.16 1.68C35.69 0.27 34.78 0.07 34.28 0.07C33.03 0.07 32.35 1.3 31.96 2.46C29.04 14.12 15.85 17.87 15.63 17.93C14.43 18.34 13.93 19.07 13.72 19.62C13.36 20.55 13.66 21.4 13.82 21.76L17.88 33.75C18.3 35 19.33 35.75 20.63 35.75C21.17 35.75 21.58 35.62 21.69 35.58C25.02 34.46 28.28 33.88 31.38 33.88C39.65 33.88 44.21 37.98 44.25 38.02L44.47 38.19C44.83 38.42 45.53 38.8 46.23 38.8C46.84 38.8 47.37 38.53 47.69 38.05C48.26 37.21 47.87 36.26 47.77 36.02ZM31.38 30.92C27.96 30.92 24.38 31.54 20.69 32.81L16.61 20.74C18.02 20.33 30.23 16.51 34.22 5.22L37.96 16.26L40.36 23.36L44.05 34.25C41.65 32.81 37.38 30.92 31.38 30.92ZM16.25 40.72C16.25 40.72 17.04 38.17 16.65 36.99L12 22.96C12 22.96 11.72 21.2 9.86 21.83L4.1 23.78C4.1 23.78 -0.39 25.52 1.1 29.93L3.15 35.99C3.15 35.99 4.78 41.11 9.24 39.6C9.24 39.6 11 39.08 11.79 41.91L15.49 52.87C15.49 52.87 15.81 54.73 17.57 54.13C17.57 54.13 23 53.18 18.66 48.79C19.92 46.14 16.25 44.36 16.25 40.72ZM33.57 11.9C32.94 11.82 32.34 12.27 32.26 12.91C31.66 17.62 24.68 19.59 24.61 19.61C23.98 19.78 23.62 20.43 23.79 21.05C23.93 21.57 24.4 21.92 24.92 21.92C25.02 21.92 25.12 21.9 25.23 21.88C25.58 21.78 33.79 19.47 34.59 13.21C34.66 12.56 34.21 11.98 33.57 11.9Z" />
		</g>
	</g>
</svg>